<svg width="28" height="28" viewBox="0 0 28 28" fill="none" xmlns="http://www.w3.org/2000/svg"><path d="M8.16406 23.332H19.8307" stroke="#2E3A28" stroke-width="2.33333" stroke-linecap="round" stroke-linejoin="round"/><path d="M11.6641 23.3346C18.0807 20.418 12.5974 15.868 15.1641 11.668" stroke="#2E3A28" stroke-width="2.33333" stroke-linecap="round" stroke-linejoin="round"/><path d="M11.0807 10.9677C12.3641 11.901 13.1807 13.5343 13.7641 15.2843C11.4307 15.751 9.68073 15.751 8.16406 14.9343C6.76406 14.2343 5.48073 12.7177 4.66406 10.0343C7.93073 9.451 9.7974 10.0343 11.0807 10.9677Z" stroke="#2E3A28" stroke-width="2.33333" stroke-linecap="round" stroke-linejoin="round"/><path d="M16.4517 7.0013C15.5622 8.39145 15.1148 10.0185 15.1684 11.668C17.385 11.5513 19.0184 10.968 20.185 10.0346C21.3517 8.86797 22.0517 7.3513 22.1684 4.66797C19.0184 4.78464 17.5017 5.83464 16.4517 7.0013Z" stroke="#2E3A28" stroke-width="2.33333" stroke-linecap="round" stroke-linejoin="round"/></svg>