<svg width="28" height="28" viewBox="0 0 28 28" fill="none" xmlns="http://www.w3.org/2000/svg"><path d="M9.33594 16.332C13.2019 16.332 16.3359 13.198 16.3359 9.33203C16.3359 5.46604 13.2019 2.33203 9.33594 2.33203C5.46994 2.33203 2.33594 5.46604 2.33594 9.33203C2.33594 13.198 5.46994 16.332 9.33594 16.332Z" stroke="#2E3A28" stroke-width="2.33333" stroke-linecap="round" stroke-linejoin="round"/><path d="M21.1042 12.0977C22.207 12.5088 23.1884 13.1914 23.9575 14.0824C24.7267 14.9733 25.2587 16.0438 25.5045 17.1949C25.7503 18.346 25.7019 19.5404 25.3637 20.6678C25.0256 21.7952 24.4086 22.8191 23.5698 23.6449C22.7311 24.4706 21.6977 25.0716 20.5651 25.3921C19.4326 25.7126 18.2376 25.7424 17.0905 25.4787C15.9434 25.215 14.8813 24.6663 14.0025 23.8833C13.1236 23.1004 12.4564 22.1085 12.0625 20.9993" stroke="#2E3A28" stroke-width="2.33333" stroke-linecap="round" stroke-linejoin="round"/><path d="M8.16406 7H9.33073V11.6667" stroke="#2E3A28" stroke-width="2.33333" stroke-linecap="round" stroke-linejoin="round"/><path d="M19.4968 16.1914L20.3134 17.0197L17.0234 20.3097" stroke="#2E3A28" stroke-width="2.33333" stroke-linecap="round" stroke-linejoin="round"/></svg>